PathFileType	4	(X/Y/Z)	OpenSim_Sub07_CSBaseline_Magnet.trc
DataRate	CameraRate	NumFrames	NumMarkers	Units	OrigDataRate	OrigDataStartFrame	OrigNumFrames
100	100	37	8	m	100	6815	7788
Frame#	Time	torso_imu_offset_imu	pelvis_imu_offset_imu	tibia_r_imu_offset_imu	femur_r_imu_offset_imu	tibia_l_imu_offset_imu	femur_l_imu_offset_imu	toes_r_imu_offset_imu	toes_l_imu_offset_imu
				X1	Y1	Z1	X2	Y2	Z2	X3	Y3	Z3	X4	Y4	Z4	X5	Y5	Z5	X6	Y6	Z6	X7	Y7	Z7	X8		Y8	Z8	

6815	68.14000000	0.92661573	0.18289550	0.04041555	-0.73299692	0.13233906	-0.58718951	-0.26660471	-0.77073175	0.19471397	-0.70972055	-0.46906041	-0.13205749	-0.72967195	0.33794673	0.09280071	-0.66741877	-0.30278779	0.18181808	-0.81555298	-0.36981258	-0.24419988	-0.66513044	-0.25107904	-0.40623225
6816	68.15000000	0.93163856	0.18603727	0.04057819	-0.73038823	0.13458245	-0.58140950	-0.24642900	-0.77352516	0.18834829	-0.71368339	-0.45305324	-0.12949756	-0.72753375	0.34614320	0.10480063	-0.66502708	-0.29658264	0.18931583	-0.82877139	-0.36848836	-0.21291490	-0.66445270	-0.25711550	-0.40002546
6817	68.16000000	0.93308513	0.18085074	0.03512355	-0.73344607	0.13702018	-0.58323318	-0.22869735	-0.78625005	0.17805326	-0.72506248	-0.44678809	-0.13418575	-0.72407036	0.35413913	0.10926429	-0.66269116	-0.29395786	0.19136586	-0.83396556	-0.35811724	-0.16882230	-0.66319393	-0.26225746	-0.39060152
6818	68.17000000	0.93172129	0.18226495	0.03491530	-0.73115885	0.14142579	-0.58441575	-0.20482480	-0.79421100	0.17521756	-0.73074535	-0.43345415	-0.13712809	-0.71951243	0.36332493	0.11587862	-0.66435187	-0.28667946	0.18733832	-0.83707260	-0.35986614	-0.12329064	-0.66869689	-0.26527701	-0.38925214
6819	68.18000000	0.92690875	0.18267718	0.03454638	-0.73978329	0.14121167	-0.58185345	-0.18657178	-0.80070035	0.16795245	-0.74468161	-0.42092373	-0.14010599	-0.71460883	0.36445197	0.11532135	-0.66232783	-0.28088513	0.19808171	-0.84173645	-0.35627406	-0.07555242	-0.67175660	-0.27249654	-0.38785052
6820	68.19000000	0.92305304	0.19076846	0.03699337	-0.73517742	0.13824931	-0.57881744	-0.16169715	-0.80321494	0.16376409	-0.74898574	-0.40158907	-0.14436768	-0.72121711	0.37121596	0.11755674	-0.66306485	-0.27253775	0.20224593	-0.84783882	-0.35058730	-0.02435113	-0.67051557	-0.27467848	-0.38614449
6821	68.20000000	0.92555694	0.19130460	0.03176890	-0.73771570	0.14045111	-0.57971811	-0.14523253	-0.80504011	0.15489608	-0.75068222	-0.38066379	-0.14398530	-0.71661486	0.37678293	0.12062448	-0.65852753	-0.26313389	0.20639031	-0.84578078	-0.34795017	0.02343599	-0.66841254	-0.27204555	-0.38405276
6822	68.21000000	0.92680904	0.19174832	0.03062734	-0.73379201	0.14009839	-0.58468941	-0.12887916	-0.80628379	0.15430406	-0.76474544	-0.36706849	-0.15594988	-0.70939294	0.37594413	0.12724660	-0.65161828	-0.25858167	0.21378091	-0.84364251	-0.34983044	0.07418330	-0.66560276	-0.27430089	-0.38726609
6823	68.22000000	0.92114807	0.19433003	0.03110003	-0.73556159	0.13997732	-0.57754014	-0.11235200	-0.81499877	0.14752832	-0.77536563	-0.34828798	-0.15566312	-0.70475234	0.38763084	0.12591418	-0.65259429	-0.25360254	0.21279271	-0.83126452	-0.35327650	0.12283493	-0.67026425	-0.28098890	-0.38158871
6824	68.23000000	0.92535392	0.19500731	0.03374301	-0.74160872	0.14092638	-0.57758426	-0.10473424	-0.81067275	0.14335498	-0.78580874	-0.32523327	-0.15697737	-0.70622337	0.39560989	0.12236712	-0.65350818	-0.25402620	0.21722107	-0.81513720	-0.35668820	0.16905093	-0.68080222	-0.27979467	-0.38178621
6825	68.24000000	0.92412158	0.19363721	0.03464732	-0.73643246	0.14603264	-0.58121271	-0.09359305	-0.81111532	0.13940184	-0.79136234	-0.30209594	-0.16465180	-0.70343577	0.39967529	0.12489109	-0.65337845	-0.25042515	0.22204611	-0.79724274	-0.36493020	0.21694531	-0.67685551	-0.27892311	-0.38704981
6826	68.25000000	0.91972168	0.19606205	0.03266061	-0.73523974	0.14797236	-0.58126613	-0.08365319	-0.81467126	0.14202613	-0.79720087	-0.28163479	-0.17095034	-0.69528900	0.41013807	0.12276967	-0.64744483	-0.24744704	0.22253866	-0.78141400	-0.37066419	0.26283266	-0.67848328	-0.28238864	-0.38587565
6827	68.26000000	0.92469715	0.19946358	0.03659839	-0.73640406	0.14725955	-0.58801745	-0.08057794	-0.81403018	0.13898225	-0.80647998	-0.26307861	-0.17576820	-0.69588223	0.41311738	0.12184982	-0.64487763	-0.24652915	0.22781194	-0.76024901	-0.37671723	0.30839688	-0.67933639	-0.27757971	-0.38039905
6828	68.27000000	0.92621914	0.20052341	0.03833362	-0.73633346	0.15140651	-0.58140337	-0.08126995	-0.81446201	0.12841158	-0.81118438	-0.23866919	-0.17081280	-0.69586234	0.41465778	0.12334518	-0.64200677	-0.24237192	0.23188990	-0.73333401	-0.37869104	0.35584656	-0.67782420	-0.28133229	-0.37990828
6829	68.28000000	0.92424009	0.19988605	0.03422771	-0.73075045	0.15426151	-0.58771981	-0.08287330	-0.81331645	0.13209724	-0.81713299	-0.22183709	-0.16801975	-0.68890247	0.41486326	0.12540387	-0.64485677	-0.23482759	0.23198191	-0.69914249	-0.38518249	0.40494765	-0.68031828	-0.27519094	-0.37582414
6830	68.29000000	0.92232744	0.20527336	0.03520061	-0.73151208	0.15645521	-0.58128503	-0.09056013	-0.81298940	0.13629687	-0.82761647	-0.20890378	-0.16546166	-0.68886749	0.41796271	0.13013209	-0.64442416	-0.22505726	0.23190829	-0.67599197	-0.39931854	0.44338369	-0.68021951	-0.27765676	-0.37709232
6831	68.30000000	0.92551769	0.19913023	0.03833877	-0.73193055	0.15160480	-0.58173689	-0.08607201	-0.81622087	0.14287963	-0.82761693	-0.19353634	-0.16238685	-0.69088143	0.42243880	0.12745630	-0.64116828	-0.22355547	0.23855391	-0.65647111	-0.40663421	0.46372288	-0.68351087	-0.28760302	-0.37441203
6832	68.31000000	0.92424387	0.20338600	0.04204458	-0.73409325	0.15582449	-0.58583030	-0.09426208	-0.80867015	0.14082218	-0.83316654	-0.17584451	-0.15859922	-0.68598636	0.42704898	0.13124057	-0.63834947	-0.21135316	0.23949389	-0.64330904	-0.41924776	0.46417479	-0.68570579	-0.28383492	-0.36964391
6833	68.32000000	0.92854582	0.20683903	0.03949388	-0.73325747	0.16430300	-0.58561333	-0.10651079	-0.80525318	0.14085018	-0.84162901	-0.16730731	-0.14652127	-0.68296527	0.43037995	0.13352694	-0.63788886	-0.20506419	0.23828934	-0.63768687	-0.42619922	0.45360536	-0.68581896	-0.27988223	-0.37166128
6834	68.33000000	0.92643477	0.20881292	0.03790177	-0.73146420	0.16340203	-0.58570701	-0.11362298	-0.81294256	0.13026982	-0.85012590	-0.14804251	-0.14039325	-0.68535309	0.42956847	0.13619954	-0.63798335	-0.19808554	0.23842584	-0.63745341	-0.43699284	0.42710923	-0.68676610	-0.28067342	-0.36443110
6835	68.34000000	0.92282798	0.20655566	0.04417147	-0.73172092	0.16682981	-0.58578257	-0.12357376	-0.80789741	0.12311609	-0.84992374	-0.13343564	-0.13441693	-0.67871985	0.43537394	0.14293394	-0.63654647	-0.18656354	0.24513277	-0.63997807	-0.44037357	0.39980703	-0.68422380	-0.27791947	-0.36243304
6836	68.35000000	0.92436949	0.20586640	0.04293902	-0.72748219	0.17052999	-0.59067915	-0.13561880	-0.80305933	0.11743546	-0.85289894	-0.12581211	-0.12462632	-0.68133183	0.44327924	0.13877728	-0.62815336	-0.18294657	0.24533873	-0.65080960	-0.44263247	0.37192411	-0.68979330	-0.28251756	-0.36603787
6837	68.36000000	0.92519417	0.20927307	0.04428038	-0.72411799	0.17234329	-0.59426334	-0.14767326	-0.80430863	0.11363152	-0.85518000	-0.11259091	-0.12061517	-0.68131232	0.44187633	0.13757174	-0.63016940	-0.17492770	0.24751795	-0.65875603	-0.43746962	0.34222990	-0.68533227	-0.28087183	-0.36138231
6838	68.37000000	0.92326680	0.20424010	0.04434109	-0.72727895	0.17053396	-0.58608843	-0.16453160	-0.80174803	0.11846747	-0.85772899	-0.10646204	-0.10932004	-0.67277665	0.44948501	0.13676117	-0.62677027	-0.16729810	0.25219286	-0.66706502	-0.43386626	0.32128787	-0.69143438	-0.27977428	-0.36881860
6839	68.38000000	0.92339620	0.20933694	0.04174661	-0.72599382	0.17240547	-0.58817026	-0.17992193	-0.79323556	0.12081697	-0.85989491	-0.09508561	-0.10257909	-0.67075743	0.44751276	0.13358168	-0.62953939	-0.16366447	0.25010137	-0.67179623	-0.43318126	0.28994576	-0.68356996	-0.27791196	-0.36547188
6840	68.39000000	0.92321936	0.20638865	0.04560427	-0.72654514	0.18082676	-0.59304374	-0.20042359	-0.78753163	0.13300129	-0.86281889	-0.08670111	-0.10348899	-0.67542529	0.44906783	0.13488733	-0.62482438	-0.15875969	0.25769894	-0.67382092	-0.42615408	0.27067293	-0.68175607	-0.27670205	-0.36476406
6841	68.40000000	0.91950857	0.20606316	0.04265004	-0.72025612	0.17761013	-0.59167262	-0.22470190	-0.78091676	0.14592481	-0.86256316	-0.08294826	-0.09854333	-0.67118494	0.46208228	0.13807615	-0.62113881	-0.15102040	0.26295395	-0.68083962	-0.41221651	0.25119559	-0.68595039	-0.28149337	-0.36903139
6842	68.41000000	0.91810011	0.21290424	0.04480980	-0.72334204	0.17879332	-0.59583950	-0.24941977	-0.77077888	0.15319273	-0.86162865	-0.07459408	-0.09992614	-0.67098510	0.45677720	0.13511326	-0.62201702	-0.14361657	0.25819814	-0.68996620	-0.40731923	0.22305404	-0.68217154	-0.27613437	-0.36544219
6843	68.42000000	0.92411884	0.20969310	0.04659222	-0.72405871	0.18074647	-0.59619809	-0.27384607	-0.75588859	0.17109648	-0.87018088	-0.06632926	-0.09234383	-0.67007774	0.45806761	0.13939752	-0.61560983	-0.14293767	0.26341209	-0.69455800	-0.39475949	0.19934467	-0.68480976	-0.27488275	-0.37153642
6844	68.43000000	0.92321006	0.20692633	0.03895687	-0.71576202	0.18336783	-0.59716864	-0.30200846	-0.74068581	0.18919965	-0.87120273	-0.06030973	-0.09047677	-0.67116078	0.46344860	0.13888749	-0.61318507	-0.13737320	0.26777432	-0.69950188	-0.38343743	0.17516255	-0.68523150	-0.27545484	-0.37449478
6845	68.44000000	0.92359062	0.20413849	0.04203968	-0.71540158	0.18816672	-0.59239237	-0.32990741	-0.72450616	0.20526439	-0.86981122	-0.05307913	-0.08811596	-0.67065197	0.46327565	0.14676914	-0.60631482	-0.12882671	0.26980548	-0.70019904	-0.37052766	0.14304241	-0.68628246	-0.27306598	-0.37450130
6846	68.45000000	0.92333146	0.20674702	0.04634171	-0.71529353	0.19097968	-0.59599619	-0.35615857	-0.71007400	0.21474359	-0.87161244	-0.05470634	-0.08462797	-0.67336139	0.46486798	0.15468958	-0.59946029	-0.12880348	0.27772864	-0.70090210	-0.36559408	0.10843423	-0.68542401	-0.26384107	-0.37304869
6847	68.46000000	0.92320724	0.20924174	0.04246283	-0.71542287	0.19202713	-0.59945559	-0.38104352	-0.69153198	0.21371683	-0.87573264	-0.04620545	-0.08627172	-0.66887027	0.46093626	0.15664618	-0.59889802	-0.12443424	0.28067656	-0.70092154	-0.36209065	0.07731879	-0.68668368	-0.26210767	-0.37449829
6848	68.47000000	0.92387960	0.20957468	0.05085182	-0.71552327	0.19520119	-0.59286334	-0.41133426	-0.67174077	0.22519074	-0.87029694	-0.03940427	-0.07897235	-0.66440476	0.46366470	0.16360177	-0.59991218	-0.12160422	0.28555243	-0.70637570	-0.35946382	0.04276367	-0.68600947	-0.26413892	-0.38067028
6849	68.48000000	0.92114298	0.20510227	0.05052088	-0.71579702	0.19626472	-0.59878239	-0.44336446	-0.65499750	0.22388314	-0.87547760	-0.03470455	-0.08204191	-0.65436831	0.47098233	0.16447069	-0.59277247	-0.11406438	0.28266349	-0.70632363	-0.35559353	0.00814859	-0.68969031	-0.25925226	-0.38055501
6850	68.49000000	0.91832092	0.20802476	0.05185790	-0.70986508	0.19887872	-0.60230128	-0.47775953	-0.63607956	0.21412045	-0.87180187	-0.03001304	-0.07848693	-0.65429094	0.46813160	0.16926332	-0.59666605	-0.10969696	0.28871728	-0.70778530	-0.35784500	-0.02172887	-0.69107512	-0.25608960	-0.38894906
6851	68.50000000	0.92250669	0.21249963	0.04960479	-0.70803836	0.19809010	-0.59892786	-0.50052753	-0.61640498	0.20639818	-0.87425953	-0.03039186	-0.07380882	-0.65738367	0.47419344	0.16861660	-0.59376610	-0.10990124	0.29787863	-0.70512797	-0.35835716	-0.05205478	-0.69329528	-0.25853215	-0.38666109
